<?xml version="1.0" encoding="UTF-8"?>
<svg xmlns="http://www.w3.org/2000/svg" viewBox="178 0 51 55">
  <g fill="#ccaf2d">
    <path d="M220.33,27.16h.8v15.61h-6.69v-15.61h3.04c-3.64-.5-5.92-2.95-6.38-6.35v26.98h-6.69V0h6.69v18.18c.52-3.81,3.3-6.52,7.78-6.52,4.94,0,7.9,3.51,7.9,7.84,0,4.07-2.37,7.11-6.45,7.67Z"/>
    <path d="M201.06,6.62v47.8h-6.69v-18.16c-.52,3.8-3.31,6.51-7.77,6.51-4.94,0-7.9-3.51-7.9-7.84,0-4.07,2.37-7.11,6.45-7.67h-.8v-15.61h6.69v15.61h-3.04c3.64.5,5.91,2.94,6.38,6.33V6.62h6.69Z"/>
  </g>
</svg>
